{"title":"Despicable.Me.2010.BRRip.H264.Feel-Free","uid":6005304,"size":1363246929,"categoryP":"video","categoryS":"movies","magnet":"?xt=urn:btih:40f5974a6f75e173c0420e38aaeea496e553ee41&amp;dn=Despicable.Me.2010.BRRip.H264.Feel-Free&amp;tr=udp%3A%2F%2Ftracker.openbittorrent.com%3A80&amp;tr=udp%3A%2F%2Fopen.demonii.com%3A1337&amp;tr=udp%3A%2F%2Ftracker.coppersurfer.tk%3A6969&amp;tr=udp%3A%2F%2Fexodus.desync.com%3A6969","seeders":1,"leechers":0,"uploader":"hiest","files":-1,"time":1291302621,"description":"Genre:Animation | Comedy | Family\nLanguage:English\nIMDb:http://www.imdb.com/title/tt1323594/\nSource:720p.Bluray.x264-CBGB\n\nGeneral\nComplete name :Despicable.Me.2010.BRRip.H264.Feel-Free\nFormat : MPEG-4\nFormat profile : Base Media\nCodec ID : mp42\nFile size : 1.27 GiB\nDuration : 1h 34mn\nOverall bit rate : 1 913 Kbps\nVideo #1\nCodec ID : avc1\nCodec ID/Info : Advanced Video Coding\nDuration : 1h 34mn\nBit rate mode : Variable\nBit rate : 1 433 Kbps\nWidth : 720 pixels\nHeight : 384 pixels\nDisplay aspect ratio : 1.875\nFrame rate mode : Constant\nFrame rate : 23.976 fps\nResolution : 24 bits\nColorimetry : 4:2:0\nScan type : Progressive\nBits/(Pixel*Frame) : 0.216\nStream size : 972 MiB (75%)\nAudio #2\nID : 2\nFormat : AAC\nFormat/Info : Advanced Audio Codec\nFormat version : Version 4\nFormat profile : LC\nFormat settings, SBR : No\nCodec ID : 40\nDuration : 1h 34mn\nBit rate mode : Constant\nBit rate : 476 Kbps\nNominal bit rate : 480 Kbps\nChannel(s) : 6 channels\nChannel positions : Front: L C R, Rear: L R, LFE\nSampling rate : 48.0 KHz\nResolution : 16 bits\nStream size : 323 MiB (25%)\n\nPlot:\nA trio of orphan girls cause the normally deplorable Gru to rethink his plan to steal the moon\n\n\n\n\n\n\n================================== &lt;a href=&quot;\nhttp://thepiratebay.se/user/hiest&quot; rel=&quot;nofollow&quot; target=&quot;_NEW&quot;&gt;\nhttp://thepiratebay.se/user/hiest&lt;/a&gt;\n==================================\n\n\n\n","torrent":{"xt":"urn:btih:40f5974a6f75e173c0420e38aaeea496e553ee41","amp;dn":"Despicable.Me.2010.BRRip.H264.Feel-Free","amp;tr":["udp%3A%2F%2Ftracker.openbittorrent.com%3A80","udp%3A%2F%2Fopen.demonii.com%3A1337","udp%3A%2F%2Ftracker.coppersurfer.tk%3A6969","udp%3A%2F%2Fexodus.desync.com%3A6969"],"infoHash":"40f5974a6f75e173c0420e38aaeea496e553ee41","infoHashBuffer":{"type":"Buffer","data":[64,245,151,74,111,117,225,115,192,66,14,56,170,238,164,150,229,83,238,65]},"announce":[],"urlList":[]}}